<?xml version="1.0" encoding="utf-8"?>
<!-- Generator: Adobe Illustrator 21.0.0, SVG Export Plug-In . SVG Version: 6.00 Build 0)  -->
<svg version="1.1" xmlns="http://www.w3.org/2000/svg" xmlns:xlink="http://www.w3.org/1999/xlink" x="0px" y="0px"
	 viewBox="0 0 571 164" style="enable-background:new 0 0 571 164;" xml:space="preserve">
<style type="text/css">
	.st0{enable-background:new    ;}
	.st1{fill-rule:evenodd;clip-rule:evenodd;fill:#2D121A;}
	.st2{fill-rule:evenodd;clip-rule:evenodd;fill:#AC0937;}
</style>
<g id="L_copiar_2_1_" class="st0">
	<g id="L_copiar_2">
		<g>
			<path class="st1" d="M284.8,127.1h-41.5c-1,0-1.6-0.5-1.6-1.6V6.3c0-1.2-0.4-2.2-1.1-2.9c-0.7-0.7-1.7-1.1-2.9-1.1H13.3
				c-1.2,0-2.2,0.4-2.9,1.1C9.6,4.2,9.2,5.1,9.2,6.3v98.8l53,53.7h73.1c1.2,0,2.2-0.4,2.9-1.1c0.7-0.7,1.1-1.7,1.1-2.9V96.9
				c0-1,0.5-1.6,1.6-1.6H184c1.2,0,2.2-0.4,2.9-1.1c0.7-0.7,1.1-1.7,1.1-2.9V67.8c0-1.2-0.4-2.2-1.1-2.9c-0.7-0.7-1.7-1.1-2.9-1.1
				H141c-1,0-1.6-0.5-1.6-1.6V35.6c0-1,0.5-1.6,1.6-1.6h63.8v120.8c0,1.2,0.4,2.2,1.1,2.9c0.7,0.7,1.7,1.1,2.9,1.1h104.1
				c1.1,0,2-0.3,2.8-1L284.8,127.1z M102.3,127.1H47.9c-1,0-1.6-0.5-1.6-1.6V96.9c0-1,0.5-1.6,1.6-1.6H91c1.2,0,2.2-0.4,2.9-1.1
				c0.7-0.7,1.1-1.7,1.1-2.9V67.8c0-1.2-0.4-2.2-1.1-2.9c-0.7-0.7-1.7-1.1-2.9-1.1H47.9c-1,0-1.6-0.5-1.6-1.6V35.6
				c0-1,0.5-1.6,1.6-1.6h54.4V127.1z"/>
		</g>
	</g>
</g>
<g id="Retângulo_4_1_" class="st0">
	<g id="Retângulo_4">
		<g>
			<path class="st2" d="M9.2,121.5v33.4c0,1.2,0.4,2.2,1.1,2.9c0.7,0.7,1.7,1.1,2.9,1.1h33.3L9.2,121.5z"/>
		</g>
	</g>
</g>
<g id="DESIGNER_FULL-STACK_1_" class="st0">
	<g id="DESIGNER_FULL-STACK">
		<g>
			<path class="st1" d="M375.1,91.2c-1.4-0.6-3-0.9-4.8-0.9h-8.7c-0.2,0-0.3,0.1-0.5,0.2c-0.1,0.1-0.2,0.3-0.2,0.5v23.2
				c0,0.2,0.1,0.3,0.2,0.5c0.1,0.1,0.3,0.2,0.5,0.2h8.7c1.8,0,3.4-0.3,4.8-0.9s2.5-1.5,3.2-2.7c0.8-1.2,1.2-2.5,1.2-4V98
				c0-1.5-0.4-2.9-1.2-4C377.6,92.8,376.5,91.9,375.1,91.2z M373.7,106.1c0,1.1-0.3,2-0.9,2.7c-0.6,0.7-1.3,1-2.3,1H367
				c-0.2,0-0.2-0.1-0.2-0.2V95.5c0-0.2,0.1-0.2,0.2-0.2h3.5c1,0,1.7,0.3,2.3,1c0.6,0.7,0.9,1.6,0.9,2.7V106.1z M399.3,90.3h-16.1
				c-0.2,0-0.3,0.1-0.5,0.2c-0.1,0.1-0.2,0.3-0.2,0.5v23.2c0,0.2,0.1,0.3,0.2,0.5c0.1,0.1,0.3,0.2,0.5,0.2h16.1
				c0.2,0,0.3-0.1,0.5-0.2c0.1-0.1,0.2-0.3,0.2-0.5v-3.7c0-0.2-0.1-0.3-0.2-0.5c-0.1-0.1-0.3-0.2-0.5-0.2h-10.7
				c-0.2,0-0.2-0.1-0.2-0.2v-4.5c0-0.2,0.1-0.2,0.2-0.2h6.7c0.2,0,0.3-0.1,0.5-0.2c0.1-0.1,0.2-0.3,0.2-0.5v-3.7
				c0-0.2-0.1-0.3-0.2-0.5c-0.1-0.1-0.3-0.2-0.5-0.2h-6.7c-0.2,0-0.2-0.1-0.2-0.2v-4.2c0-0.2,0.1-0.2,0.2-0.2h10.7
				c0.2,0,0.3-0.1,0.5-0.2c0.1-0.1,0.2-0.3,0.2-0.5v-3.7c0-0.2-0.1-0.3-0.2-0.5C399.6,90.4,399.5,90.3,399.3,90.3z M416.9,101.9
				c-0.9-0.4-2.2-0.9-3.8-1.5c-1.4-0.5-2.5-0.8-3.2-1.1c-0.7-0.3-1.2-0.6-1.5-0.9c-0.3-0.3-0.5-0.8-0.5-1.3c0-0.7,0.3-1.2,0.8-1.6
				c0.5-0.4,1.2-0.6,2.1-0.6c1.2,0,2.2,0.3,2.9,0.9c0.7,0.6,1.1,1.4,1.1,2.2v0.3c0,0.1,0.1,0.2,0.2,0.3c0.1,0.1,0.3,0.1,0.5,0.1h4.4
				c0.2,0,0.3-0.1,0.5-0.2c0.1-0.1,0.2-0.3,0.2-0.5v-0.3c0-1.5-0.4-2.9-1.2-4.1c-0.8-1.2-1.9-2.1-3.4-2.8c-1.4-0.7-3-1-4.8-1
				c-1.7,0-3.2,0.3-4.6,0.9c-1.3,0.6-2.4,1.4-3.1,2.5c-0.8,1.1-1.1,2.3-1.1,3.8c0,1.5,0.4,2.7,1.2,3.8c0.8,1,1.7,1.8,2.9,2.4
				c1.1,0.6,2.4,1.1,3.9,1.6l0.8,0.2c1.5,0.5,2.5,0.9,3.1,1.2c0.6,0.3,0.9,0.9,0.9,1.5c0,0.6-0.2,1.1-0.7,1.5
				c-0.5,0.4-1.2,0.7-2.3,0.7c-1.2,0-2.2-0.3-2.9-0.9c-0.8-0.6-1.1-1.2-1.1-2v-0.4c0-0.1-0.1-0.2-0.2-0.3c-0.1-0.1-0.3-0.1-0.5-0.1
				h-4.4c-0.2,0-0.3,0.1-0.5,0.2c-0.1,0.1-0.2,0.3-0.2,0.5v0.5c0,1.5,0.4,2.8,1.2,4c0.8,1.2,1.9,2,3.3,2.7c1.4,0.6,3,0.9,4.9,0.9
				c1.8,0,3.4-0.3,4.8-0.9c1.4-0.6,2.5-1.5,3.2-2.6c0.8-1.1,1.2-2.4,1.2-3.9c0-1.5-0.4-2.8-1.2-3.7S417.8,102.4,416.9,101.9z
				 M424.1,114.8h4.5c0.2,0,0.3-0.1,0.5-0.2c0.1-0.1,0.2-0.3,0.2-0.5V90.9c0-0.2-0.1-0.3-0.2-0.5c-0.1-0.1-0.3-0.2-0.5-0.2h-4.5
				c-0.2,0-0.3,0.1-0.5,0.2c-0.1,0.1-0.2,0.3-0.2,0.5v23.2c0,0.2,0.1,0.3,0.2,0.5C423.8,114.7,424,114.8,424.1,114.8z M436.8,113.9
				c1.4,0.7,3,1.1,4.9,1.1c1.9,0,3.5-0.4,4.9-1.1c1.4-0.7,2.5-1.7,3.3-3.1c0.8-1.3,1.2-2.9,1.2-4.6v-4.5c0-0.2-0.1-0.3-0.2-0.5
				c-0.1-0.1-0.3-0.2-0.5-0.2H442c-0.2,0-0.3,0.1-0.5,0.2c-0.1,0.1-0.2,0.3-0.2,0.5v3.4c0,0.2,0.1,0.3,0.2,0.5
				c0.1,0.1,0.3,0.2,0.5,0.2h3.2c0.2,0,0.2,0.1,0.2,0.2v0.9c0,1-0.3,1.7-0.9,2.3c-0.6,0.5-1.5,0.8-2.5,0.8c-1.1,0-2-0.3-2.7-1
				c-0.7-0.7-1.1-1.6-1.1-2.7v-7.5c0-1.1,0.3-2,1-2.7c0.7-0.7,1.5-1,2.6-1c1.1,0,2,0.3,2.6,1c0.6,0.6,1,1.4,1,2.3v0.2
				c0,0.1,0.2,0.2,0.6,0.2h4.5c0.4,0,0.6-0.2,0.6-0.6c0-1.5-0.4-2.9-1.2-4.1c-0.8-1.2-1.9-2.2-3.3-2.9c-1.4-0.7-3.1-1.1-4.9-1.1
				c-1.9,0-3.5,0.4-4.9,1.1c-1.4,0.7-2.5,1.8-3.3,3.1c-0.8,1.3-1.2,2.9-1.2,4.7v7.2c0,1.8,0.4,3.3,1.2,4.7
				C434.3,112.1,435.4,113.2,436.8,113.9z M459.6,114.6c0.1-0.1,0.2-0.3,0.2-0.5l-0.1-12.9c0-0.1,0-0.2,0.1-0.2c0.1,0,0.1,0,0.2,0.1
				l7.7,13.2c0.2,0.3,0.4,0.4,0.7,0.4h4.3c0.2,0,0.3-0.1,0.5-0.2c0.1-0.1,0.2-0.3,0.2-0.5V90.9c0-0.2-0.1-0.3-0.2-0.5
				c-0.1-0.1-0.3-0.2-0.5-0.2h-4.5c-0.2,0-0.3,0.1-0.5,0.2c-0.1,0.1-0.2,0.3-0.2,0.5l0,12.7c0,0.1,0,0.2-0.1,0.2
				c-0.1,0-0.1,0-0.2-0.1l-7.7-13c-0.2-0.3-0.4-0.4-0.7-0.4h-4.3c-0.2,0-0.3,0.1-0.5,0.2c-0.1,0.1-0.2,0.3-0.2,0.5v23.2
				c0,0.2,0.1,0.3,0.2,0.5c0.1,0.1,0.3,0.2,0.5,0.2h4.5C459.3,114.8,459.5,114.7,459.6,114.6z M477.3,114.8h16.1
				c0.2,0,0.3-0.1,0.5-0.2c0.1-0.1,0.2-0.3,0.2-0.5v-3.7c0-0.2-0.1-0.3-0.2-0.5c-0.1-0.1-0.3-0.2-0.5-0.2h-10.7
				c-0.2,0-0.2-0.1-0.2-0.2v-4.5c0-0.2,0.1-0.2,0.2-0.2h6.7c0.2,0,0.3-0.1,0.5-0.2c0.1-0.1,0.2-0.3,0.2-0.5v-3.7
				c0-0.2-0.1-0.3-0.2-0.5c-0.1-0.1-0.3-0.2-0.5-0.2h-6.7c-0.2,0-0.2-0.1-0.2-0.2v-4.2c0-0.2,0.1-0.2,0.2-0.2h10.7
				c0.2,0,0.3-0.1,0.5-0.2c0.1-0.1,0.2-0.3,0.2-0.5v-3.7c0-0.2-0.1-0.3-0.2-0.5c-0.1-0.1-0.3-0.2-0.5-0.2h-16.1
				c-0.2,0-0.3,0.1-0.5,0.2c-0.1,0.1-0.2,0.3-0.2,0.5v23.2c0,0.2,0.1,0.3,0.2,0.5C477,114.7,477.2,114.8,477.3,114.8z M497.5,114.8
				h4.5c0.2,0,0.3-0.1,0.5-0.2c0.1-0.1,0.2-0.3,0.2-0.5v-8.9c0-0.2,0.1-0.2,0.2-0.2h2.2c0.1,0,0.2,0.1,0.3,0.2l4.1,9.1
				c0.1,0.3,0.4,0.5,0.7,0.5h4.8c0.4,0,0.6-0.2,0.6-0.5l-0.1-0.3l-4.5-9.3c-0.1-0.2,0-0.3,0.1-0.3c1.4-0.5,2.4-1.3,3.2-2.5
				c0.8-1.1,1.1-2.5,1.1-4c0-1.5-0.3-2.8-1-4c-0.6-1.2-1.5-2-2.7-2.7c-1.2-0.6-2.5-0.9-4.1-0.9h-10.2c-0.2,0-0.3,0.1-0.5,0.2
				c-0.1,0.1-0.2,0.3-0.2,0.5v23.2c0,0.2,0.1,0.3,0.2,0.5C497.2,114.7,497.3,114.8,497.5,114.8z M502.7,95.5c0-0.2,0.1-0.2,0.2-0.2
				h3.8c0.9,0,1.6,0.2,2.1,0.7c0.5,0.5,0.8,1.1,0.8,2c0,0.8-0.3,1.4-0.8,1.9c-0.5,0.5-1.2,0.7-2.1,0.7h-3.8c-0.2,0-0.2-0.1-0.2-0.2
				V95.5z M377.7,132.3h-16.1c-0.2,0-0.3,0.1-0.5,0.2c-0.1,0.1-0.2,0.3-0.2,0.5v23.2c0,0.2,0.1,0.3,0.2,0.5c0.1,0.1,0.3,0.2,0.5,0.2
				h4.5c0.2,0,0.3-0.1,0.5-0.2c0.1-0.1,0.2-0.3,0.2-0.5V147c0-0.2,0.1-0.2,0.2-0.2h6.7c0.2,0,0.3-0.1,0.5-0.2
				c0.1-0.1,0.2-0.3,0.2-0.5v-3.7c0-0.2-0.1-0.3-0.2-0.5c-0.1-0.1-0.3-0.2-0.5-0.2H367c-0.2,0-0.2-0.1-0.2-0.2v-4.2
				c0-0.2,0.1-0.2,0.2-0.2h10.7c0.2,0,0.3-0.1,0.5-0.2c0.1-0.1,0.2-0.3,0.2-0.5v-3.7c0-0.2-0.1-0.3-0.2-0.5
				C378,132.3,377.9,132.3,377.7,132.3z M398.3,132.3h-4.5c-0.2,0-0.3,0.1-0.5,0.2c-0.1,0.1-0.2,0.3-0.2,0.5v15.5c0,1.1-0.3,2-1,2.6
				c-0.6,0.7-1.5,1-2.5,1c-1.1,0-1.9-0.3-2.6-1c-0.6-0.7-1-1.5-1-2.6v-15.5c0-0.2-0.1-0.3-0.2-0.5c-0.1-0.1-0.3-0.2-0.5-0.2h-4.5
				c-0.2,0-0.3,0.1-0.5,0.2c-0.1,0.1-0.2,0.3-0.2,0.5v15.5c0,1.7,0.4,3.2,1.2,4.5c0.8,1.3,1.9,2.3,3.3,3c1.4,0.7,3,1.1,4.9,1.1
				c1.8,0,3.5-0.4,4.9-1.1c1.4-0.7,2.5-1.7,3.3-3c0.8-1.3,1.2-2.8,1.2-4.5v-15.5c0-0.2-0.1-0.3-0.2-0.5
				C398.6,132.3,398.5,132.3,398.3,132.3z M419.1,151.8h-10.9c-0.2,0-0.2-0.1-0.2-0.2v-18.6c0-0.2-0.1-0.3-0.2-0.5
				c-0.1-0.1-0.3-0.2-0.5-0.2h-4.5c-0.2,0-0.3,0.1-0.5,0.2c-0.1,0.1-0.2,0.3-0.2,0.5v23.2c0,0.2,0.1,0.3,0.2,0.5
				c0.1,0.1,0.3,0.2,0.5,0.2h16.3c0.2,0,0.3-0.1,0.5-0.2c0.1-0.1,0.2-0.3,0.2-0.5v-3.7c0-0.2-0.1-0.3-0.2-0.5
				C419.5,151.8,419.3,151.8,419.1,151.8z M439.1,151.8h-10.9c-0.2,0-0.2-0.1-0.2-0.2v-18.6c0-0.2-0.1-0.3-0.2-0.5
				c-0.1-0.1-0.3-0.2-0.5-0.2h-4.5c-0.2,0-0.3,0.1-0.5,0.2c-0.1,0.1-0.2,0.3-0.2,0.5v23.2c0,0.2,0.1,0.3,0.2,0.5
				c0.1,0.1,0.3,0.2,0.5,0.2h16.3c0.2,0,0.3-0.1,0.5-0.2c0.1-0.1,0.2-0.3,0.2-0.5v-3.7c0-0.2-0.1-0.3-0.2-0.5
				C439.5,151.8,439.3,151.8,439.1,151.8z M453.5,144.1H442c-0.2,0-0.3,0.1-0.5,0.2c-0.1,0.1-0.2,0.3-0.2,0.5v3.7
				c0,0.2,0.1,0.3,0.2,0.5c0.1,0.1,0.3,0.2,0.5,0.2h11.5c0.2,0,0.3-0.1,0.5-0.2c0.1-0.1,0.2-0.3,0.2-0.5v-3.7c0-0.2-0.1-0.3-0.2-0.5
				C453.8,144.2,453.7,144.1,453.5,144.1z M470.9,143.9c-0.9-0.4-2.2-0.9-3.8-1.5c-1.4-0.5-2.5-0.8-3.2-1.1
				c-0.7-0.3-1.2-0.6-1.5-0.9c-0.3-0.3-0.5-0.8-0.5-1.3c0-0.7,0.3-1.2,0.8-1.6c0.5-0.4,1.2-0.6,2.1-0.6c1.2,0,2.2,0.3,2.9,0.9
				c0.7,0.6,1.1,1.4,1.1,2.2v0.3c0,0.1,0.1,0.2,0.2,0.3c0.1,0.1,0.3,0.1,0.5,0.1h4.4c0.2,0,0.3-0.1,0.5-0.2c0.1-0.1,0.2-0.3,0.2-0.5
				v-0.3c0-1.5-0.4-2.9-1.2-4.1c-0.8-1.2-1.9-2.1-3.4-2.8c-1.4-0.7-3-1-4.8-1c-1.7,0-3.2,0.3-4.6,0.9c-1.3,0.6-2.4,1.4-3.1,2.5
				c-0.8,1.1-1.1,2.3-1.1,3.8c0,1.5,0.4,2.7,1.2,3.8c0.8,1,1.7,1.8,2.9,2.4c1.1,0.6,2.4,1.1,3.9,1.6l0.8,0.2
				c1.5,0.5,2.5,0.9,3.1,1.2c0.6,0.3,0.9,0.9,0.9,1.5c0,0.6-0.2,1.1-0.7,1.5c-0.5,0.4-1.2,0.7-2.3,0.7c-1.2,0-2.2-0.3-2.9-0.9
				c-0.8-0.6-1.1-1.2-1.1-2v-0.4c0-0.1-0.1-0.2-0.2-0.3c-0.1-0.1-0.3-0.1-0.5-0.1h-4.4c-0.2,0-0.3,0.1-0.5,0.2
				c-0.1,0.1-0.2,0.3-0.2,0.5v0.5c0,1.5,0.4,2.8,1.2,4c0.8,1.2,1.9,2,3.3,2.7c1.4,0.6,3,0.9,4.9,0.9c1.8,0,3.4-0.3,4.8-0.9
				c1.4-0.6,2.5-1.5,3.2-2.6c0.8-1.1,1.2-2.4,1.2-3.9c0-1.5-0.4-2.8-1.2-3.7S471.8,144.3,470.9,143.9z M495.3,137.1
				c0.1-0.1,0.2-0.3,0.2-0.5v-3.7c0-0.2-0.1-0.3-0.2-0.5c-0.1-0.1-0.3-0.2-0.5-0.2h-17.7c-0.2,0-0.3,0.1-0.5,0.2
				c-0.1,0.1-0.2,0.3-0.2,0.5v3.7c0,0.2,0.1,0.3,0.2,0.5c0.1,0.1,0.3,0.2,0.5,0.2h5.6c0.2,0,0.2,0.1,0.2,0.2v18.6
				c0,0.2,0.1,0.3,0.2,0.5c0.1,0.1,0.3,0.2,0.5,0.2h4.5c0.2,0,0.3-0.1,0.5-0.2c0.1-0.1,0.2-0.3,0.2-0.5v-18.6c0-0.2,0.1-0.2,0.2-0.2
				h5.8C495,137.3,495.2,137.2,495.3,137.1z M509.8,132.8c-0.1-0.3-0.3-0.5-0.7-0.5h-6.2c-0.4,0-0.6,0.2-0.7,0.5l-7.3,23.3
				c-0.1,0.2-0.1,0.4,0,0.5c0.1,0.1,0.3,0.2,0.5,0.2h4.9c0.4,0,0.6-0.2,0.7-0.5l0.8-2.9c0-0.1,0.1-0.2,0.3-0.2h7.9
				c0.2,0,0.3,0.1,0.3,0.2l0.8,2.9c0.1,0.3,0.3,0.5,0.7,0.5h4.9c0.4,0,0.6-0.2,0.6-0.5c0-0.1,0-0.2,0-0.2L509.8,132.8z M508.8,148.6
				c0,0.1-0.1,0.1-0.2,0.1h-5.2c-0.1,0-0.2-0.1-0.2-0.2v-0.1l2.7-9.3c0-0.1,0.1-0.2,0.2-0.2c0.1,0,0.1,0.1,0.1,0.2l2.7,9.3
				C508.8,148.4,508.8,148.5,508.8,148.6z M532,140.9h0.2l4.5-0.3c0.4,0,0.6-0.2,0.6-0.4c0-1.6-0.4-3.1-1.2-4.3
				c-0.8-1.2-1.9-2.2-3.3-2.9c-1.4-0.7-3-1-4.9-1c-1.9,0-3.5,0.4-4.9,1.1c-1.4,0.7-2.5,1.7-3.3,3.1c-0.8,1.3-1.2,2.8-1.2,4.6v7.6
				c0,1.7,0.4,3.3,1.2,4.6c0.8,1.3,1.9,2.4,3.3,3.1c1.4,0.7,3,1.1,4.9,1.1c1.9,0,3.5-0.3,4.9-1c1.4-0.7,2.5-1.7,3.3-2.9
				c0.8-1.3,1.2-2.7,1.2-4.4v-0.2c0-0.1-0.2-0.1-0.6-0.2l-4.6-0.2c-0.2,0-0.4,0-0.5,0.1s-0.2,0.2-0.2,0.3c0,1.1-0.3,1.9-1,2.6
				c-0.7,0.7-1.5,1-2.6,1c-1.1,0-1.9-0.3-2.6-1c-0.7-0.7-1-1.5-1-2.6v-7.9c0-1.1,0.3-1.9,1-2.6c0.7-0.7,1.5-1,2.6-1
				c1.1,0,1.9,0.3,2.6,1c0.7,0.7,1,1.5,1,2.6v0.2C531.5,140.9,531.7,140.9,532,140.9z M559.9,156l-7.7-12.8c0-0.1,0-0.2,0-0.3
				l7.3-9.8c0.1-0.1,0.1-0.2,0.1-0.4c0-0.3-0.2-0.4-0.5-0.4H554c-0.3,0-0.6,0.1-0.8,0.4l-6.8,9.1c-0.1,0.1-0.1,0.1-0.2,0.1
				c-0.1,0-0.1-0.1-0.1-0.2v-8.7c0-0.2-0.1-0.3-0.2-0.5c-0.1-0.1-0.3-0.2-0.5-0.2h-4.5c-0.2,0-0.3,0.1-0.5,0.2
				c-0.1,0.1-0.2,0.3-0.2,0.5v23.2c0,0.2,0.1,0.3,0.2,0.5c0.1,0.1,0.3,0.2,0.5,0.2h4.5c0.2,0,0.3-0.1,0.5-0.2
				c0.1-0.1,0.2-0.3,0.2-0.5v-6.2c0-0.1,0-0.2,0.1-0.3l1.7-2.4c0-0.1,0.1-0.1,0.2-0.1c0.1,0,0.1,0.1,0.2,0.1l5.3,9.1
				c0.2,0.3,0.4,0.4,0.7,0.4h5.1c0.3,0,0.5-0.1,0.5-0.4C560,156.2,560,156.1,559.9,156z"/>
		</g>
	</g>
</g>
</svg>
